<svg width="80" height="80" viewBox="0 0 80 80" fill="none" xmlns="http://www.w3.org/2000/svg">
<rect width="80" height="80" fill="#F5F5F5"/>
<g id="Plugin icon - 1" clip-path="url(#clip0_0_1)">
<rect width="80" height="80" fill="white"/>
<rect id="bigSquare" y="6.10352e-05" width="80" height="80" rx="3" fill="#EDC951"/>
<path id="H" d="M31.6328 64L31.6328 16L43.2344 16L43.2344 35.2656L62.1484 35.2656L62.1484 16L73.7266 16L73.7266 64L62.1484 64L62.1484 44.7109L43.2344 44.7109L43.2344 64L31.6328 64Z" fill="#000000"/>
<path id="D" d="M25.375 64L7.63281 64L7.63281 16L25.3516 16C30.2422 16 34.4531 16.9609 37.9844 18.8828C41.5313 20.7891 44.2656 23.5391 46.1875 27.1328C48.1094 30.7109 49.0703 34.9922 49.0703 39.9766C49.0703 44.9766 48.1094 49.2734 46.1875 52.8672C44.2813 56.4609 41.5547 59.2188 38.0078 61.1406C34.4609 63.0469 30.25 64 25.375 64ZM19.2344 54.1094L24.9297 54.1094C27.6172 54.1094 29.8906 53.6563 31.75 52.75C33.625 51.8281 35.0391 50.3359 35.9922 48.2734C36.9609 46.1953 37.4453 43.4297 37.4453 39.9766C37.4453 36.5234 36.9609 33.7734 35.9922 31.7266C35.0234 29.6641 33.5938 28.1797 31.7031 27.2734C29.8281 26.3516 27.5156 25.8906 24.7656 25.8906L19.2344 25.8906L19.2344 54.1094Z" fill="#000000"/>
</g>
<defs>
<clipPath id="clip0_0_1">
<rect width="80" height="80" fill="white"/>
</clipPath>
</defs>
</svg>
